<svg xmlns="http://www.w3.org/2000/svg" xmlns:svg="http://www.w3.org/2000/svg" xmlns:xlink="http://www.w3.org/1999/xlink" id="svg2" width="15.997" height="16" x="0" y="0" enable-background="new 0 0 256 256" version="1.1" viewBox="0 0 15.997 16" xml:space="preserve"><metadata id="metadata164"/><defs id="defs162"><defs id="defs20"><path id="SVGID_3_" d="M 245.46,129.523 147.569,32.625 c -5.556,-5.502 -16.222,-11.873 -23.7,-14.16 L 84.351,6.382 C 76.872,4.096 66.255,6.773 60.752,12.33 L 47.311,25.908 c -5.5,5.559 -14.502,14.653 -20.005,20.21 l -13.44,13.579 c -5.5,5.558 -8.07,16.206 -5.706,23.658 l 12.483,39.391 c 2.363,7.456 8.843,18.056 14.399,23.556 l 97.89,96.898 c 5.558,5.502 14.605,5.455 20.105,-0.101 l 36.26,-36.63 c 5.504,-5.559 14.503,-14.651 20.005,-20.209 l 36.259,-36.629 c 5.502,-5.56 5.455,-14.606 -0.101,-20.108 z M 67.375,78.783 c -7.198,0 -13.033,-5.835 -13.033,-13.033 0,-7.197 5.835,-13.033 13.033,-13.033 7.197,0 13.033,5.835 13.033,13.033 -0.001,7.198 -5.836,13.033 -13.033,13.033 z"/></defs><defs id="defs23"><path id="SVGID_4_" d="M 245.46,129.523 147.569,32.625 c -5.556,-5.502 -16.222,-11.873 -23.7,-14.16 L 84.351,6.382 C 76.872,4.096 66.255,6.773 60.752,12.33 L 47.311,25.908 c -5.5,5.559 -14.502,14.653 -20.005,20.21 l -13.44,13.579 c -5.5,5.558 -8.07,16.206 -5.706,23.658 l 12.483,39.391 c 2.363,7.456 8.843,18.056 14.399,23.556 l 97.89,96.898 c 5.558,5.502 14.605,5.455 20.105,-0.101 l 36.26,-36.63 c 5.504,-5.559 14.503,-14.651 20.005,-20.209 l 36.259,-36.629 c 5.502,-5.56 5.455,-14.606 -0.101,-20.108 z M 67.375,78.783 c -7.198,0 -13.033,-5.835 -13.033,-13.033 0,-7.197 5.835,-13.033 13.033,-13.033 7.197,0 13.033,5.835 13.033,13.033 -0.001,7.198 -5.836,13.033 -13.033,13.033 z"/></defs><clipPath id="SVGID_5_"><use id="use27" width="256" height="256" x="0" y="0" overflow="visible" xlink:href="#SVGID_3_" style="overflow:visible"/></clipPath><clipPath id="SVGID_6_" clip-path="url(#SVGID_5_)"><use id="use30" width="256" height="256" x="0" y="0" overflow="visible" xlink:href="#SVGID_4_" style="overflow:visible"/></clipPath><linearGradient id="SVGID_9_" x1="136.68" x2="136.68" y1="229.467" y2="39.946" gradientUnits="userSpaceOnUse"><stop id="stop63" offset="0" style="stop-color:#e6e7e8"/><stop id="stop65" offset="1" style="stop-color:#fff"/></linearGradient><linearGradient id="SVGID_7_" x1="128.469" x2="128.469" y1="247.297" y2="5.565" gradientUnits="userSpaceOnUse"><stop style="stop-color:#39b54a" id="stop37" offset="0"/><stop style="stop-color:#45b748" id="stop39" offset=".082"/><stop style="stop-color:#64be44" id="stop41" offset=".329"/><stop style="stop-color:#7bc241" id="stop43" offset=".569"/><stop style="stop-color:#88c540" id="stop45" offset=".797"/><stop style="stop-color:#8dc63f" id="stop47" offset="1"/></linearGradient></defs><path style="font-size:medium;font-style:normal;font-variant:normal;font-weight:400;font-stretch:normal;text-indent:0;text-align:start;text-decoration:none;line-height:normal;letter-spacing:normal;word-spacing:normal;text-transform:none;direction:ltr;block-progression:tb;writing-mode:lr-tb;text-anchor:start;baseline-shift:baseline;color:#000;fill:#babdb6;fill-opacity:1;stroke:none;stroke-width:1.00000012;marker:none;visibility:visible;display:inline;overflow:visible;enable-background:accumulate;font-family:Sans;-inkscape-font-specification:Sans" id="path49" d="M 4.375,0.3125 C 4.0353148,0.39637015 3.725428,0.58966519 3.46875,0.84375 L 2.625,1.65625 C 2.283386,1.9947214 1.7480805,2.5366136 1.40625,2.875 L 0.5625,3.71875 C 0.04926978,4.22716 -0.12877415,4.9686438 0.09375,5.65625 l 0.75,2.40625 C 1.030194,8.6392232 1.4388263,9.2954913 1.875,9.71875 l 6.09375,5.875 c 0.540943,0.524933 1.4021192,0.530872 1.9375,0 l 2.25,-2.21875 c 0.342038,-0.338639 0.908197,-0.911527 1.25,-1.25 l 2.25,-2.21875 C 16.088198,9.4783579 16.081553,8.8575177 15.8125,8.34375 A 0.50005006,0.50005006 0 0 0 15.78125,8.25 0.50005006,0.50005006 0 0 0 15.6875,8.03125 c -0.01678,-0.01818 -0.01329,-0.045084 -0.03125,-0.0625 L 15.625,7.9375 A 0.50005006,0.50005006 0 0 0 15.53125,7.875 L 9.5625,2.0625 C 9.1262499,1.6390011 8.4590081,1.2688317 7.875,1.09375 l -2.4375,-0.75 C 5.0914477,0.24006257 4.7146852,0.22862985 4.375,0.3125 z m 0.78125,1 2.4375,0.71875 c 0.3451989,0.1034883 1.0271265,0.5033043 1.28125,0.75 l 6.0625,5.90625 c 0.149916,0.1453943 0.179449,0.3531922 0.03125,0.5 l -2.28125,2.25 c -0.341869,0.338537 -0.876852,0.880249 -1.21875,1.21875 l -2.25,2.21875 c -0.1480474,0.1468 -0.412806,0.145263 -0.5625,0 L 2.5625,9 C 2.3082813,8.7533087 1.9196662,8.0814948 1.8125,7.75 L 1.03125,5.34375 C 0.96001341,5.1236268 1.0797838,4.6061176 1.25,4.4375 L 2.09375,3.59375 C 2.4357237,3.2552218 3.0019364,2.7136692 3.34375,2.375 L 4.1875,1.53125 C 4.3579482,1.3625238 4.9190157,1.2414177 5.15625,1.3125 z M 4.25,3.15625 c -0.7121389,0 -1.3125,0.5672328 -1.3125,1.28125 0,0.7140416 0.6004032,1.28125 1.3125,1.28125 0.7120738,0 1.2811427,-0.567249 1.28125,-1.28125 0,-0.7140883 -0.5691762,-1.28125 -1.28125,-1.28125 z m 0,1 c 0.1822344,0 0.28125,0.1185547 0.28125,0.28125 C 4.5312255,4.6003012 4.4322344,4.71875 4.25,4.71875 4.0676758,4.71875 3.9375,4.6002606 3.9375,4.4375 3.9375,4.2748466 4.0677179,4.15625 4.25,4.15625 z"/><path id="path67" d="m 119.142,160.18 c 0.84,7.224 1.71,13.293 2.208,19.39 0.512,6.339 3.038,8.335 9.523,6.429 22.587,-6.635 45.307,-12.838 67.97,-19.206 2.67,-0.75 5.341,-1.501 9.025,-2.535 0.833,12.349 1.615,23.891 2.412,35.654 -1.142,0.599 -1.95,1.211 -2.854,1.465 -31.292,8.807 -62.574,17.621 -93.895,26.293 -3.664,1.014 -7.543,1.427 -11.355,1.697 C 90.384,230.227 82.548,225.62 79.808,214.074 76.516,200.198 74.52,185.987 72.551,171.832 69.208,147.797 65.861,123.745 63.399,99.604 61.398,80.011 68.687,68.89 87.52,63.106 c 25.428,-7.81 51.072,-15.024 76.851,-21.607 18.449,-4.705 27.947,1.101 31.71,19.9 3.24,16.215 5.159,32.819 6.165,49.337 1.003,16.504 -5.839,25.949 -21.635,31.218 -17.217,5.745 -34.78,10.464 -52.195,15.617 -2.9,0.856 -5.822,1.64 -9.274,2.609 z m -4.598,-31.437 c 13.178,-3.704 25.534,-6.922 37.661,-10.851 1.854,-0.599 3.891,-4.542 3.736,-6.795 -0.588,-8.65 -2.093,-17.234 -3.128,-25.862 -0.501,-4.16 -2.669,-5.014 -6.397,-3.938 -10.324,2.989 -20.794,5.54 -30.96,8.994 -2.189,0.75 -4.88,4.648 -4.722,6.915 0.702,10.166 2.353,20.269 3.81,31.537 z" clip-path="url(#SVGID_6_)" clip-rule="evenodd" transform="matrix(0.06212998,0,0,0.06090512,0.0499001,0.43507875)" style="fill:#babdb6;fill-rule:evenodd;stroke-width:15.30011368;stroke-miterlimit:4;stroke-dasharray:none"/><path style="font-size:medium;font-style:normal;font-variant:normal;font-weight:400;font-stretch:normal;text-indent:0;text-align:start;text-decoration:none;line-height:normal;letter-spacing:normal;word-spacing:normal;text-transform:none;direction:ltr;block-progression:tb;writing-mode:lr-tb;text-anchor:start;baseline-shift:baseline;color:#000;fill:#babdb6;fill-opacity:1;stroke:none;stroke-width:1.00000012;marker:none;visibility:visible;display:inline;overflow:visible;enable-background:accumulate;font-family:Sans;-inkscape-font-specification:Sans" id="path4203" d="m 3.8125,4.65625 a 0.50005006,0.50005006 0 0 0 -0.25,0.125 c -3.31743533,2.587779 -3.9072733,5.752775 -3.25,7.625 0.16431832,0.468056 0.41785942,0.878209 0.75,1.15625 0.3321406,0.278041 0.7753754,0.43245 1.21875,0.34375 0.8867492,-0.177401 1.5390118,-1.101112 2,-2.6875 A 0.50005006,0.50005006 0 1 0 3.34375,10.9375 c -0.4139928,1.424664 -0.9863392,1.916003 -1.25,1.96875 -0.1318304,0.02637 -0.2555399,0.0012 -0.40625,-0.125 C 1.5367899,12.655088 1.3687036,12.431874 1.25,12.09375 0.7751857,10.741254 1.1095372,7.9391007 4.15625,5.5625 A 0.50005006,0.50005006 0 0 0 3.8125,4.65625 z"/></svg>